<mxfile host="app.diagrams.net" modified="2023-04-17T05:17:43.671Z" agent="Mozilla/5.0 (X11; Linux x86_64) AppleWebKit/537.36 (KHTML, like Gecko) Chrome/108.0.0.0 Safari/537.36" version="21.1.8" etag="A6YHEWoDzqBzxMx9oTN2" type="github">
  <diagram name="Page-1" id="_3-YXE6fwbLjVkBHm375">
    <mxGraphModel>
      <root>
        <mxCell id="0" />
        <mxCell id="1" parent="0" />
      </root>
    </mxGraphModel>
  </diagram>
</mxfile>
